PathFileType	4	(X/Y/Z)	8_coords_data.trc
DataRate	CameraRate	NumFrames	NumMarkers	Units	OrigDataRate	OrigDataStartFrame	OrigNumFrames
30.0	30.0	9	21	m	30.0	10	47
Frame#	Time	THUMB_TIP	THUMB_IP	THUMB_MCP	THUMB_CMC	INDEX_TIP	INDEX_DIP	INDEX_PIP	INDEX_MCP	MIDDLE_TIP	MIDDLE_DIP	MIDDLE_PIP	MIDDLE_MCP	RING_TIP	RING_DIP	RING_PIP	RING_MCP	PINKY_TIP	PINKY_DIP	PINKY_PIP	PINKY_MCP	WRIST
X1	Y1	Z1	X2	Y2	Z2	X3	Y3	Z3	X4	Y4	Z4	X5	Y5	Z5	X6	Y6	Z6	X7	Y7	Z7	X8	Y8	Z8	X9	Y9	Z9	X10	Y10	Z10	X11	Y11	Z11	X12	Y12	Z12	X13	Y13	Z13	X14	Y14	Z14	X15	Y15	Z15	X16	Y16	Z16	X17	Y17	Z17	X18	Y18	Z18	X19	Y19	Z19	X20	Y20	Z20	X21	Y21	Z21
9	0.3	-0.027153400421142577	0.009238340377807618	0.9392210083007813	-0.026261600494384765	-0.002830410003662109	0.961718994140625	-0.037655498504638674	-0.00530502986907959	0.9864650268554688	-0.048097198486328124	0.016821800231933595	1.0002999877929688	-0.0539990005493164	-0.01034589958190918	0.9744019775390625	-0.04039229965209961	-0.012124600410461426	0.9641939697265625	-0.043490798950195315	-0.01859749984741211	0.9466339721679687	-0.07837660217285156	-0.015373100280761718	0.9578839721679687	-0.03968790054321289	0.003071360111236572	0.9686279907226563	-0.03771390151977539	0.003918570041656494	0.963635986328125	-0.04117219924926758	0.0006756659746170041	0.9402219848632812	-0.07967279815673828	0.004354450225830078	0.9500989990234375	-0.04574789810180664	0.018642799377441406	0.9760020141601562	-0.038474700927734376	0.020261600494384767	0.9685549926757813	-0.03682889938354492	0.020442399978637695	0.9445969848632813	-0.07355590057373047	0.023213600158691405	0.9495289916992188	-0.05037730026245117	0.033444000244140626	0.981072998046875	-0.03797740173339844	0.033471298217773435	0.9724299926757812	-0.03704259872436524	0.03529759979248047	0.9552969970703125	-0.06471939849853516	0.04024290084838867	0.9532940063476563	-0.07522209930419922	0.03665530014038086	1.020719970703125
10	0.3333333333333333	-0.02691659927368164	0.008739390373229981	0.9392899780273437	-0.026058399200439453	-0.003126640081405639	0.9616719970703125	-0.03735979843139649	-0.005578670024871826	0.9865059814453125	-0.04799179840087891	0.016540899276733398	1.0004099731445313	-0.05365869903564453	-0.010627599716186523	0.9748779907226562	-0.04025870132446289	-0.01241510009765625	0.9643599853515625	-0.043293598175048825	-0.018959699630737306	0.9467059936523438	-0.07817549896240235	-0.01570699977874756	0.9579949951171876	-0.03947209930419922	0.0026900699138641348	0.9686380004882813	-0.03753179931640625	0.003529360055923462	0.96364501953125	-0.04097190093994141	0.00028031399846076906	0.94031298828125	-0.0794925994873047	0.003991280078887939	0.9501909790039063	-0.0458380012512207	0.018466299057006835	0.9774869995117188	-0.03832849884033203	0.0199197998046875	0.968573974609375	-0.03669490051269531	0.020089599609375	0.9444979858398438	-0.07334839630126953	0.022821800231933594	0.9495679931640625	-0.04998839950561523	0.03318109893798828	0.9813619995117188	-0.03770220184326172	0.033072799682617185	0.9722930297851563	-0.036907901763916014	0.034932201385498046	0.9552869873046875	-0.06452960205078125	0.039861801147460935	0.9532990112304688	-0.0752239990234375	0.0364473991394043	1.020989990234375
11	0.36666666666666664	-0.026753999710083007	0.008539239883422851	0.9394400024414062	-0.025875799179077147	-0.003372970104217529	0.9618280029296875	-0.03730030059814453	-0.005838300228118896	0.9865809936523438	-0.04794900131225586	0.016306699752807616	1.0004400024414062	-0.05349449920654297	-0.010792900085449218	0.9749769897460937	-0.04023260116577149	-0.012672100067138672	0.964385986328125	-0.0431083984375	-0.01913680076599121	0.9467589721679688	-0.07802179718017578	-0.015942999839782715	0.9579089965820312	-0.039309799194335936	0.002661720037460327	0.9690759887695313	-0.03765250015258789	0.003406889915466308	0.963926025390625	-0.04080580139160156	0.000115865997970104	0.940323974609375	-0.07935700225830078	0.003749789953231811	0.9501900024414063	-0.045494998931884766	0.018326799392700197	0.97664697265625	-0.038183799743652345	0.019730100631713866	0.9686300048828125	-0.03655609893798828	0.019870100021362306	0.9445339965820313	-0.07322380065917969	0.02260969924926758	0.9495859985351562	-0.04992010116577148	0.03292770004272461	0.9810540161132812	-0.0377052001953125	0.03291220092773438	0.972458984375	-0.03678689956665039	0.03473839950561523	0.9553209838867187	-0.06445929718017578	0.039637699127197265	0.9533560180664062	-0.0752104034423828	0.036261100769042966	1.0209099731445312
12	0.4	-0.026567800521850586	0.008849539756774903	0.9395139770507812	-0.025635799407958983	-0.003343100070953369	0.9618880004882813	-0.03722969818115234	-0.005915649890899658	0.9866290283203125	-0.04780929946899414	0.016150699615478516	1.0004099731445313	-0.05333990097045899	-0.010865599632263183	0.974802978515625	-0.039918701171875	-0.012580900192260743	0.9644169921875	-0.042836898803710936	-0.019101499557495117	0.9467009887695312	-0.07784310150146484	-0.015992199897766114	0.9578889770507812	-0.03925920104980469	0.0026734199523925782	0.9690780029296875	-0.03730770111083984	0.0034583098888397207	0.9640349731445312	-0.04053359985351562	0.000169195994734764	0.9403790283203125	-0.07910870361328125	0.00366690993309021	0.9500679931640625	-0.04565579986572266	0.01835300064086914	0.9774080200195312	-0.038115898132324216	0.019742300033569336	0.9687150268554687	-0.036333000183105466	0.019919099807739257	0.944718994140625	-0.07299400329589843	0.022550500869750977	0.9494639892578125	-0.049862201690673826	0.03291540145874024	0.981156005859375	-0.03762960052490234	0.03293510055541992	0.9725590209960937	-0.03671310043334961	0.03475659942626953	0.9554229736328125	-0.06432879638671875	0.039607601165771486	0.9533179931640625	-0.0749281005859375	0.03600220108032227	1.02072998046875
13	0.43333333333333335	-0.026515499114990234	0.008710499763488769	0.9395549926757812	-0.02564550018310547	-0.003432349920272827	0.9617839965820313	-0.03718830108642578	-0.006075570106506348	0.9866519775390625	-0.04778910064697266	0.01600349998474121	1.0003400268554687	-0.053317798614501956	-0.01095989990234375	0.9748619995117187	-0.03988219833374024	-0.012706000328063965	0.9644299926757812	-0.04278609848022461	-0.01920389938354492	0.9466690063476563	-0.07778759765625	-0.016114900588989258	0.9579039916992188	-0.039257598876953126	0.0025231800079345704	0.9689829711914062	-0.03742449951171875	0.003263350009918213	0.9638209838867188	-0.04051050186157226	0.000108510002493858	0.9403289794921875	-0.07907779693603516	0.0035770599842071533	0.950073974609375	-0.04551480102539063	0.018292800903320312	0.977051025390625	-0.03807730102539063	0.019627599716186522	0.9686740112304687	-0.03627099990844727	0.019837499618530274	0.9446929931640625	-0.07296060180664063	0.022451499938964843	0.9494959716796875	-0.04981859970092774	0.032807201385498044	0.9815919799804688	-0.037606201171875	0.03283169937133789	0.9725170288085937	-0.03668579864501953	0.03465999984741211	0.9553569946289062	-0.06429049682617187	0.039514198303222656	0.953322998046875	-0.07518280029296875	0.035944099426269534	1.0208200073242188
14	0.4666666666666667	-0.026305299758911133	0.008752440452575684	0.9396119995117187	-0.02555150032043457	-0.0035330901145935057	0.9620339965820313	-0.03704759979248047	-0.0060861301422119145	0.9866099853515625	-0.04772079849243164	0.01589929962158203	1.00047998046875	-0.053326698303222654	-0.010993800163269042	0.9748369750976562	-0.039618000030517575	-0.01275510025024414	0.9644099731445313	-0.042434299468994144	-0.019209999084472656	0.9466599731445312	-0.07753029632568359	-0.016231300354003907	0.9577680053710937	-0.03903129959106445	0.0024077799320220937	0.9688419799804687	-0.036985401153564454	0.0032673499584198	0.9639119873046875	-0.04027040100097656	7.556469738483401e-05	0.9404119873046874	-0.07890129852294922	0.0034603400230407712	0.9500689697265625	-0.04396889877319336	0.017883899688720704	0.9751389770507812	-0.037948299407958984	0.019590799331665038	0.9687329711914062	-0.03609059906005859	0.019837600708007812	0.9449539794921875	-0.07281420135498047	0.022341600418090822	0.949573974609375	-0.04996969985961914	0.032727798461914065	0.9816300048828125	-0.0374635009765625	0.032790699005126954	0.9725640258789062	-0.03658269882202148	0.034641899108886716	0.9554819946289063	-0.06423880004882812	0.03942359924316406	0.9534600219726562	-0.07479399871826171	0.03567559814453125	1.0207999877929688
15	0.5	-0.026156299591064452	0.008683300018310547	0.939698974609375	-0.025481399536132814	-0.0034851000308990477	0.9620560302734374	-0.037035701751708984	-0.00598091983795166	0.9865490112304688	-0.047800998687744144	0.015951199531555174	1.0004400024414062	-0.05356470108032227	-0.010827699661254882	0.97506201171875	-0.03963990020751953	-0.012695500373840332	0.9644219970703125	-0.042262001037597655	-0.01910330009460449	0.9465549926757812	-0.0774489974975586	-0.016179100036621093	0.9577260131835937	-0.03901800155639648	0.002512239933013916	0.9690020141601563	-0.03699639892578125	0.003377540111541748	0.9640440063476563	-0.04020439910888672	0.00016740700602531401	0.9403809814453125	-0.07882160186767578	0.003521310091018676	0.9500349731445312	-0.04370690155029297	0.017972000122070314	0.9751890258789062	-0.03790579986572266	0.019653600692749025	0.9687620239257813	-0.03608980178833008	0.0199197998046875	0.9447780151367188	-0.07275869750976563	0.022402799606323243	0.949572998046875	-0.0498125	0.03278839874267578	0.9816859741210937	-0.0375088005065918	0.03285739898681641	0.9726300048828125	-0.03654180145263672	0.03472489929199219	0.9555360107421875	-0.0642425994873047	0.03949689865112305	0.953489013671875	-0.07514949798583985	0.035647899627685546	1.0209000244140625
16	0.5333333333333333	-0.026229400634765625	0.008979100227355957	0.9395989990234375	-0.02538599967956543	-0.003178790092468261	0.96193701171875	-0.0369984016418457	-0.005897640228271484	0.9866069946289062	-0.047864200592041016	0.016064300537109374	1.0004600219726563	-0.05306600189208984	-0.010829500198364258	0.9743770141601562	-0.03957339859008789	-0.01250059986114502	0.9642650146484375	-0.0424651985168457	-0.01893869972229004	0.9465449829101562	-0.0775145034790039	-0.016016099929809572	0.9576790161132812	-0.03900830078125	0.002643899917602539	0.9687940063476562	-0.037068901062011717	0.003550090074539184	0.9639559936523437	-0.04020930099487305	0.00040246498584747305	0.9403079833984375	-0.07879530334472656	0.003670749902725219	0.9499219970703126	-0.045071998596191404	0.018166000366210938	0.9762990112304688	-0.03790700149536133	0.01982320022583008	0.9686729736328125	-0.03615019989013672	0.02014019966125488	0.9447550048828125	-0.07276329803466797	0.022564199447631834	0.9495170288085938	-0.049815299987792966	0.03286370086669922	0.981551025390625	-0.03755080032348633	0.03298899841308594	0.9726489868164062	-0.0365901985168457	0.03489839935302735	0.9555070190429688	-0.06424700164794922	0.039649700164794924	0.953468994140625	-0.0749260025024414	0.035715499877929685	1.02077001953125
17	0.5666666666666667	-0.02606480026245117	0.009346360206604004	0.9397249755859375	-0.025237699508666993	-0.002968960046768188	0.961968994140625	-0.03689739990234375	-0.005666220188140869	0.9865709838867187	-0.047903499603271484	0.016150299072265624	1.0004600219726563	-0.0533286018371582	-0.010689900398254395	0.974489990234375	-0.039503299713134765	-0.01231820011138916	0.9642730102539062	-0.04219879913330078	-0.018695899963378906	0.9464990234375	-0.07735910034179687	-0.015875900268554687	0.9575380249023437	-0.03894929885864258	0.0029275300502777097	0.9690460205078125	-0.036852699279785156	0.0037643001079559323	0.9639329833984375	-0.040014198303222656	0.0006731209754943841	0.9403170166015625	-0.07867140197753907	0.003852560043334961	0.9499099731445313	-0.044826698303222653	0.018302000045776368	0.976072021484375	-0.0378380012512207	0.02003700065612793	0.96881201171875	-0.03600270080566406	0.020379299163818358	0.9448159790039062	-0.07269149780273437	0.022749500274658205	0.9494910278320312	-0.049778900146484374	0.03304809951782227	0.9817379760742188	-0.037485401153564454	0.03321699905395508	0.972781982421875	-0.036529499053955077	0.035147300720214845	0.9556890258789063	-0.06416380310058593	0.039825000762939454	0.9534990234375	-0.07523629760742187	0.03580039978027344	1.0208699951171876
